<?xml version="1.0" standalone="no"?>
<!DOCTYPE svg PUBLIC "-//W3C//DTD SVG 20010904//EN"
 "http://www.w3.org/TR/2001/REC-SVG-20010904/DTD/svg10.dtd">
<svg version="1.0" xmlns="http://www.w3.org/2000/svg"
 width="880.000000pt" height="1184.000000pt" viewBox="0 0 880.000000 1184.000000"
 preserveAspectRatio="xMidYMid meet">

<g transform="translate(0.000000,1184.000000) scale(0.100000,-0.100000)"
fill="#000000" stroke="none">
<path d="M3165 8000 c3 -5 8 -10 11 -10 2 0 4 5 4 10 0 6 -5 10 -11 10 -5 0
-7 -4 -4 -10z"/>
<path d="M3150 7955 c0 -19 6 -36 13 -39 8 -4 9 -8 1 -11 -7 -4 -10 -27 -8
-63 2 -38 0 -52 -6 -42 -7 10 -10 -4 -10 -47 0 -34 4 -64 9 -67 5 -3 8 -33 8
-67 l-2 -61 -33 6 c-23 3 -32 1 -29 -7 2 -7 12 -11 21 -9 9 2 29 -12 44 -29
15 -18 36 -41 46 -51 12 -10 21 -36 24 -67 4 -42 2 -50 -14 -53 -11 -2 -19
-12 -19 -23 0 -17 -8 -21 -47 -23 -25 -2 -52 -10 -58 -18 -15 -17 -40 -19 -40
-3 0 8 -4 8 -15 -1 -10 -8 -12 -17 -5 -30 6 -11 5 -21 -3 -29 -9 -10 -8 -11 6
-6 10 4 17 2 17 -4 0 -6 -16 -11 -35 -11 -33 0 -35 2 -35 33 0 17 -5 39 -10
47 -8 13 -10 13 -10 1 0 -12 -3 -12 -12 -3 -10 10 -10 15 -1 20 37 23 -110
201 -178 216 -19 5 -28 10 -21 13 24 9 12 19 -18 15 -45 -6 -36 -28 23 -57 47
-23 108 -72 147 -119 8 -10 17 -42 20 -71 6 -53 6 -53 -23 -59 -17 -3 -36 -14
-43 -24 -11 -15 -15 -11 -39 42 -31 70 -119 166 -175 191 -34 15 -47 16 -78 7
l-37 -11 25 19 25 19 -35 -9 c-79 -19 -449 -187 -450 -203 0 -5 10 -5 23 0 62
22 128 -3 205 -78 55 -54 88 -123 78 -163 -6 -26 -66 -64 -66 -43 0 24 -49
115 -81 152 -39 44 -114 95 -141 95 -15 0 -18 -8 -18 -48 0 -68 10 -57 -212
-216 -152 -108 -272 -208 -375 -314 -86 -87 -103 -109 -103 -135 -1 -18 -12
-63 -25 -102 -13 -38 -18 -62 -11 -53 10 14 16 15 37 5 29 -15 33 -50 8 -73
-13 -12 -30 -15 -58 -11 -35 4 -41 2 -47 -16 -4 -12 -17 -38 -29 -57 -12 -19
-36 -66 -53 -105 l-31 -70 21 -16 22 -17 -19 -107 c-10 -60 -23 -109 -30 -112
-7 -2 -35 0 -63 5 -57 10 -102 -6 -102 -38 0 -10 -5 -22 -10 -25 -24 -15 16
-249 60 -361 175 -439 535 -809 1045 -1074 193 -101 313 -160 321 -160 4 0 22
14 42 31 44 39 107 68 147 69 41 0 831 -263 864 -288 23 -18 26 -26 24 -75 -1
-42 2 -57 13 -61 26 -10 389 -54 546 -67 192 -15 752 -6 948 15 121 13 216 22
253 25 4 1 7 12 7 26 0 27 27 48 73 59 16 4 27 11 25 15 -2 5 -33 41 -71 81
-54 58 -65 75 -56 86 6 8 17 14 24 14 6 0 38 11 71 24 32 13 70 27 84 31 23 6
23 6 7 -7 -40 -30 -15 -104 50 -148 24 -17 48 -30 53 -30 4 0 10 -5 12 -11 7
-22 337 58 418 101 14 8 20 21 20 46 0 27 5 37 22 43 22 8 22 8 2 25 -15 13
-18 26 -15 62 3 41 7 47 37 60 58 24 77 19 120 -36 24 -32 49 -53 67 -57 20
-4 25 -8 15 -14 -10 -6 -10 -11 -1 -20 14 -14 95 17 230 88 86 46 109 50 184
38 54 -9 71 -1 241 106 196 124 420 310 551 457 64 73 64 74 -19 92 -27 6 -73
20 -101 31 -46 19 -53 25 -53 49 0 15 7 33 15 40 22 19 161 227 259 390 117
194 117 193 187 186 l56 -7 14 83 c8 46 14 148 14 228 -1 154 -20 257 -78 411
-156 414 -524 787 -1072 1088 -110 60 -415 201 -435 201 -3 0 -14 -42 -24 -93
l-19 -93 -51 -33 c-43 -29 -62 -35 -122 -39 l-71 -4 -6 42 c-3 23 -4 66 -2 95
2 33 -1 58 -8 64 -17 13 -175 74 -372 142 -93 32 -195 71 -225 86 -51 26 -55
31 -54 60 2 30 0 32 -25 27 -14 -3 -35 -7 -46 -9 -11 -2 -34 -17 -51 -32 -36
-32 -96 -66 -127 -70 -12 -2 -35 -9 -50 -16 -28 -12 -28 -12 25 -24 l53 -12
-50 4 c-27 3 -120 12 -205 21 -318 34 -851 3 -1275 -74 -126 -23 -150 -18
-151 26 -2 165 0 157 -46 187 -23 16 -58 46 -77 67 -19 21 -41 36 -47 34 -8
-3 -11 1 -8 8 4 9 -3 14 -20 14 -23 0 -26 -5 -26 -33z m30 -125 c0 -13 -1 -13
-10 0 -5 8 -10 22 -10 30 0 13 1 13 10 0 5 -8 10 -22 10 -30z m-23 -102 c-3
-8 -6 -5 -6 6 -1 11 2 17 5 13 3 -3 4 -12 1 -19z m-647 -338 c22 -11 56 -38
76 -60 20 -22 40 -38 44 -35 11 7 43 -111 38 -140 -3 -15 -1 -40 5 -55 14 -37
-6 -89 -27 -71 -10 8 -12 21 -6 46 4 19 4 33 0 30 -5 -3 -11 1 -13 7 -3 7 -6
1 -6 -14 -1 -37 -14 -42 -44 -14 -24 22 -26 22 -30 5 -3 -10 -17 -23 -31 -29
-23 -8 -25 -13 -16 -30 17 -32 9 -74 -16 -78 -23 -3 -30 7 -74 123 -33 85 -88
175 -106 175 -7 0 -14 6 -17 14 -5 14 -57 29 -92 28 -14 -1 -16 0 -5 5 8 3 26
14 39 24 13 11 30 19 38 19 7 0 46 16 86 35 83 40 103 42 157 15z m2830 -280
c0 -6 -6 -13 -13 -16 -7 -2 -13 -13 -14 -24 -1 -11 -9 -27 -17 -36 -9 -8 -16
-22 -16 -29 0 -14 -37 -31 -47 -21 -4 3 6 28 21 55 26 48 26 50 6 56 -37 12
-21 25 30 25 28 0 50 -5 50 -10z m-2570 -20 c13 -8 12 -11 -4 -23 -17 -13 -17
-14 -2 -20 22 -9 11 -27 -15 -27 -18 0 -23 10 -19 39 1 9 -4 12 -14 8 -16 -6
-23 13 -9 26 9 10 46 8 63 -3z m2752 -39 c-2 -17 -13 -38 -23 -47 -10 -9 -19
-24 -19 -33 -1 -17 -23 -51 -33 -51 -15 0 -57 49 -47 55 5 3 15 3 20 0 11 -7
26 22 17 31 -3 3 -15 0 -27 -6 -12 -6 -33 -9 -46 -6 -37 10 -12 42 34 43 20 1
41 8 46 15 13 17 33 26 62 27 17 1 20 -4 16 -28z m-2932 0 c0 -6 -4 -13 -10
-16 -5 -3 -10 1 -10 9 0 9 5 16 10 16 6 0 10 -4 10 -9z m599 -37 c33 -14 33
-15 15 -29 -17 -13 -17 -14 -1 -15 24 0 21 -19 -5 -29 l-23 -9 25 -10 c21 -8
26 -6 32 10 10 24 41 20 46 -6 8 -41 -81 -51 -121 -13 -13 12 -38 34 -55 49
-38 31 -40 49 -9 64 24 12 42 10 96 -12z m1636 -14 c187 -24 345 -54 455 -86
47 -14 126 -36 175 -49 152 -39 519 -197 680 -293 114 -67 336 -228 404 -291
62 -59 76 -65 105 -46 14 9 30 14 36 10 18 -11 10 -33 -15 -39 -27 -7 -34 -26
-10 -26 8 0 15 -7 15 -15 0 -8 7 -15 15 -15 23 0 18 -30 -5 -31 -65 -4 -78 -1
-56 16 19 15 19 16 -10 46 -110 118 -182 177 -370 303 -237 158 -666 348 -746
331 -23 -6 -29 -4 -23 6 6 9 2 11 -13 7 -15 -4 -22 -2 -22 8 0 8 -4 14 -10 14
-5 0 -10 -4 -10 -10 0 -5 -7 -7 -15 -4 -8 4 -13 10 -10 14 3 4 -26 16 -63 25
-37 10 -98 28 -137 40 -233 76 -700 113 -1066 84 -268 -21 -709 -99 -709 -125
0 -7 -31 -22 -69 -34 -52 -17 -75 -20 -96 -13 -27 9 -24 11 51 36 211 71 636
145 919 161 139 7 453 -5 600 -24z m815 22 c0 -5 -11 -19 -25 -32 -14 -13 -25
-27 -25 -32 0 -4 24 -7 53 -7 l52 2 -40 7 c-40 7 -39 14 3 10 16 -1 22 4 22
20 0 14 -4 19 -12 14 -9 -5 -10 -4 -3 3 11 12 75 5 75 -8 0 -9 -51 -59 -61
-59 -4 0 -12 -13 -19 -30 -15 -36 -35 -38 -84 -9 -46 27 -46 51 -2 95 32 32
66 45 66 26z m-2830 -8 c0 -7 -71 -36 -77 -30 -3 2 8 11 24 20 29 16 53 20 53
10z m210 -63 c0 -19 43 -93 56 -98 25 -9 15 -23 -16 -23 -19 0 -30 5 -30 14 0
8 -8 28 -17 46 -17 29 -21 31 -59 25 -43 -6 -74 1 -74 17 0 5 8 8 18 7 52 -5
73 2 82 27 9 23 12 24 25 10 8 -8 15 -19 15 -25z m-357 2 c-7 -2 -19 -2 -25 0
-7 3 -2 5 12 5 14 0 19 -2 13 -5z m172 -63 c-15 -29 -15 -32 5 -60 12 -17 27
-30 35 -30 7 0 15 -7 19 -15 10 -27 -30 -17 -78 20 -29 22 -57 35 -76 35 -17
0 -30 5 -30 10 0 6 7 10 15 10 8 0 15 9 15 19 0 17 5 19 34 14 29 -5 35 -2 41
18 4 13 13 27 19 31 18 12 19 -18 1 -52z m348 -77 c-7 -3 -13 -9 -13 -14 0 -4
7 -5 17 -2 11 4 14 3 9 -5 -4 -7 -16 -12 -27 -12 -11 0 -18 4 -14 10 8 13 -57
-11 -73 -27 -7 -7 -23 -14 -35 -14 -17 -1 -16 -3 8 -10 24 -7 21 -7 -15 -4
-26 3 -40 2 -32 -3 9 -6 6 -11 -10 -20 -37 -18 -110 -44 -143 -49 -26 -4 -24
-1 14 16 24 12 51 21 60 22 12 0 12 2 -4 9 -20 8 -20 9 1 9 12 1 52 17 90 36
37 19 74 35 81 35 7 0 13 4 13 8 0 9 72 31 80 24 3 -3 -1 -7 -7 -9z m1847 -33
c143 -18 270 -33 381 -45 79 -8 92 -25 79 -96 -6 -30 -24 -101 -40 -159 -50
-180 -102 -384 -107 -418 -6 -39 -17 -47 -63 -44 -82 6 -707 85 -727 93 -25 9
-29 34 -14 87 5 17 8 32 6 32 -2 0 -32 -13 -67 -29 -35 -16 -80 -34 -102 -41
-28 -9 -35 -15 -25 -21 12 -7 11 -9 -1 -10 -8 -1 -22 -3 -30 -4 -8 -1 -23 -3
-32 -4 -10 0 -18 -7 -18 -14 0 -8 -23 -19 -52 -27 -29 -7 -62 -19 -73 -26 -28
-18 -213 -84 -235 -84 -10 0 -25 -6 -32 -13 -20 -21 -45 -32 -144 -66 -50 -17
-111 -31 -134 -31 -47 0 -31 -14 -211 175 -47 50 -118 126 -159 169 l-74 79
28 23 c15 13 34 24 41 24 8 0 72 23 142 51 71 28 191 75 268 104 77 30 178 70
225 90 47 20 99 41 115 47 17 5 39 14 50 19 55 24 128 49 144 49 11 0 39 -16
63 -36 44 -37 241 -218 311 -286 l38 -37 10 25 c5 14 9 29 9 34 0 5 15 55 34
112 19 57 46 143 60 192 14 48 31 95 38 103 14 17 54 15 298 -17z m1864 21 c7
-11 -49 -25 -64 -16 -5 3 -10 10 -10 16 0 12 67 12 74 0z m-114 -45 c0 -20
-20 -34 -41 -29 -23 6 -24 17 -4 37 17 16 45 11 45 -8z m-640 -101 c0 -8 -4
-15 -9 -15 -5 0 -11 7 -15 15 -3 9 0 15 9 15 8 0 15 -7 15 -15z m664 -10 c20
-15 16 -45 -6 -45 -21 0 -58 29 -58 46 0 18 39 18 64 -1z m-3974 -4 c0 -5 -17
-17 -37 -26 -21 -10 -58 -30 -83 -46 -44 -27 -120 -63 -120 -56 0 10 216 137
233 137 4 0 7 -4 7 -9z m4230 -30 c0 -36 -124 -66 -171 -41 -24 13 -25 29 -1
25 9 -2 39 -6 66 -9 38 -5 47 -3 43 8 -7 19 12 36 40 36 16 0 23 -6 23 -19z
m-4539 -67 l24 -26 -25 7 c-32 10 -51 25 -44 36 9 15 19 11 45 -17z m39 -59
c-12 -15 -30 -12 -30 5 0 8 31 19 39 13 2 -1 -2 -9 -9 -18z m4612 17 c-9 -6
-5 -12 13 -22 27 -14 144 -135 208 -212 l37 -46 -50 -24 c-27 -13 -49 -28 -50
-35 0 -7 -26 -20 -57 -28 -32 -9 -67 -20 -78 -24 -17 -7 -24 0 -47 38 -14 25
-74 100 -132 166 -58 66 -106 123 -106 127 0 8 -1 8 145 43 109 26 138 30 117
17z m-4492 -22 c0 -20 -38 -30 -64 -18 -37 16 -32 23 19 26 25 1 45 -3 45 -8z
m-840 -15 c0 -10 -11 -15 -35 -15 -24 0 -35 5 -35 15 0 10 11 15 35 15 24 0
35 -5 35 -15z m680 -9 c0 -2 -36 -34 -79 -70 -160 -132 -279 -270 -371 -430
-101 -176 -149 -346 -151 -535 -2 -121 -2 -123 -10 -51 -8 83 4 215 27 300 43
156 101 272 226 452 44 63 184 203 283 282 71 56 75 59 75 52z m95 -6 c3 -6
-1 -7 -9 -4 -18 7 -21 14 -7 14 6 0 13 -4 16 -10z m-923 -17 c-10 -4 -10 -8
-2 -18 9 -10 6 -16 -9 -25 -23 -12 -54 -1 -43 16 12 17 55 44 61 37 3 -3 0 -8
-7 -10z m289 -10 c12 -33 -2 -33 -36 -1 l-30 29 29 -3 c19 -2 32 -11 37 -25z
m-312 -97 c8 -10 9 -16 1 -21 -13 -8 -30 3 -30 21 0 18 14 18 29 0z m328 -12
c4 -13 -24 -27 -37 -19 -5 3 -7 12 -3 21 6 17 34 15 40 -2z m-45 -39 c2 -13
-49 -31 -59 -21 -10 10 27 38 45 34 7 -2 14 -7 14 -13z m-133 -25 c3 0 0 -5
-5 -10 -15 -15 -74 -1 -68 15 4 10 14 11 37 4 18 -5 34 -9 36 -9z m-315 -12
c9 -36 7 -88 -4 -88 -5 0 -10 11 -10 25 0 24 -2 25 -42 19 -32 -4 -39 -3 -28
5 8 6 25 11 38 11 12 0 22 4 22 9 0 5 -10 16 -22 24 l-23 16 31 0 c25 1 33 -4
38 -21z m456 8 c0 -2 -7 -7 -16 -10 -8 -3 -12 -2 -9 4 6 10 25 14 25 6z m40
-51 c0 -7 -39 -26 -71 -35 -48 -14 -32 4 19 21 26 9 48 17 50 18 1 0 2 -1 2
-4z m2510 -15 c0 -5 -7 -10 -15 -10 -8 0 -15 5 -15 10 0 6 7 10 15 10 8 0 15
-4 15 -10z m2270 -9 c0 -11 -5 -23 -11 -27 -8 -4 -8 -9 0 -17 18 -18 13 -27
-11 -23 -19 3 -22 9 -20 32 6 47 42 77 42 35z m-25 -113 c14 -18 33 -41 40
-50 27 -33 91 -153 128 -238 71 -166 99 -365 77 -540 -14 -117 -39 -230 -50
-230 -4 0 2 42 13 93 31 140 31 390 -1 507 -49 182 -128 339 -226 446 -25 29
-46 55 -46 58 0 13 39 -15 65 -46z m-5312 15 c89 -15 97 -18 97 -39 0 -13 -5
-26 -11 -30 -6 -3 -8 -17 -5 -30 4 -14 -3 -65 -15 -115 l-21 -90 -116 7 c-65
4 -119 8 -121 10 -5 5 39 250 50 282 10 27 17 27 142 5z m2987 -24 c134 -49
562 -217 600 -237 30 -15 35 -22 36 -54 1 -21 -2 -35 -6 -33 -4 2 -160 -149
-346 -336 -186 -187 -349 -342 -362 -345 -23 -6 -82 13 -257 86 -55 23 -183
76 -285 117 -102 41 -191 77 -198 80 -7 3 -15 15 -18 27 -4 18 48 74 298 325
368 370 402 401 431 401 13 0 61 -14 107 -31z m-1735 -19 c3 -5 1 -10 -4 -10
-6 0 -10 -6 -8 -12 3 -16 -62 -23 -76 -9 -7 7 0 15 24 25 41 18 56 19 64 6z
m-137 -42 c7 -10 3 -21 -15 -43 -14 -16 -22 -24 -19 -17 4 7 1 12 -7 12 -8 0
-20 6 -26 14 -10 12 -7 18 16 30 35 19 38 19 51 4z m291 -13 c13 -12 11 -16
-10 -23 -18 -7 -31 -5 -51 10 -16 11 -28 24 -28 30 0 14 71 0 89 -17z m-22
-77 c-3 -7 -5 -2 -5 12 0 14 2 19 5 13 2 -7 2 -19 0 -25z m3737 -1 c13 -10 28
-70 62 -252 24 -132 43 -256 42 -275 -3 -35 -3 -35 -63 -42 -115 -14 -864 -38
-890 -28 -28 11 -30 15 -50 175 -8 66 -23 177 -32 247 -13 98 -14 130 -5 141
14 16 125 23 542 33 146 4 267 8 269 10 11 10 109 3 125 -9z m-3691 -32 c12 4
17 3 11 -2 -6 -4 -16 -17 -22 -28 -23 -45 -113 -71 -227 -67 -33 2 -41 6 -41
22 0 18 7 20 72 20 81 0 124 12 124 34 0 9 12 22 28 30 24 13 27 13 30 0 3
-10 11 -13 25 -9z m-328 -15 c20 -39 19 -40 -12 -40 -31 0 -71 19 -43 20 13 0
13 1 0 10 -13 9 -12 12 4 25 27 21 33 19 51 -15z m345 -50 c0 -26 -80 -80
-128 -86 l-37 -5 38 15 c22 8 49 23 60 34 12 10 30 22 40 25 9 4 17 13 17 22
0 8 2 15 5 15 3 0 5 -9 5 -20z m-374 -324 c22 -16 14 -21 -43 -29 -26 -3 -33
0 -33 13 0 9 3 20 7 23 11 12 48 8 69 -7z m128 -29 c16 -11 17 -19 9 -43 -10
-27 -11 -27 -19 -9 -4 11 -16 26 -26 33 -19 14 -16 32 6 32 7 0 20 -6 30 -13z
m-284 -17 c12 -7 11 -12 -5 -30 -18 -20 -20 -20 -26 -3 -17 41 -3 55 31 33z
m300 -115 c0 -19 -15 -26 -35 -19 -15 6 -15 8 1 25 18 20 34 17 34 -6z m-330
-33 c-31 -5 -47 13 -29 34 12 15 15 14 32 -7 19 -24 19 -24 -3 -27z m-384
-127 c-4 -13 -26 89 -25 118 0 12 7 -7 15 -43 8 -36 12 -69 10 -75z m668 108
c5 -11 1 -22 -10 -30 -21 -15 -25 -16 -44 -3 -13 9 -11 13 10 30 31 24 36 25
44 3z m-170 -19 c9 -3 16 -12 16 -20 0 -18 -44 -18 -59 -1 -18 23 7 35 43 21z
m226 -39 c-19 -19 -37 -35 -42 -35 -8 0 63 69 71 70 3 0 -10 -16 -29 -35z
m-680 -160 c0 -5 -5 -3 -10 5 -5 8 -10 20 -10 25 0 6 5 3 10 -5 5 -8 10 -19
10 -25z m5190 5 c0 -15 -38 -50 -55 -50 -9 0 -18 7 -21 15 -4 8 -13 15 -22 15
-23 0 -2 17 28 23 46 8 70 7 70 -3z m-3575 -50 c20 -8 19 -9 -1 -9 -12 -1 -27
-8 -34 -16 -14 -17 -90 -21 -90 -5 0 35 74 52 125 30z m3435 -5 c9 -11 9 -21
-1 -45 -13 -29 -49 -43 -49 -19 0 6 -9 9 -20 6 -15 -4 -20 0 -20 14 0 10 5 19
10 19 6 0 10 6 10 14 0 13 16 22 46 25 6 0 17 -6 24 -14z m-3316 -46 c29 -23
36 -46 9 -30 -11 5 -26 5 -42 0 -29 -12 -51 -5 -51 15 0 15 26 35 46 36 6 0
23 -9 38 -21z m-305 -8 c11 -7 10 -14 -8 -39 -27 -38 -27 -66 0 -93 19 -19 19
-23 6 -36 -11 -12 -19 -13 -36 -4 -35 19 -43 46 -21 66 27 24 25 41 -5 61 -31
20 -31 26 -2 40 28 15 48 16 66 5z m306 -51 c3 -5 2 -10 -4 -10 -5 0 -13 5
-16 10 -3 6 -2 10 4 10 5 0 13 -4 16 -10z m42 -22 c-3 -8 -6 -5 -6 6 -1 11 2
17 5 13 3 -3 4 -12 1 -19z m3264 12 c26 -15 24 -46 -3 -54 -32 -8 -35 -8 -53
10 -15 15 -15 18 1 35 20 22 28 23 55 9z m-4937 -36 c3 -8 2 -12 -4 -9 -6 3
-10 10 -10 16 0 14 7 11 14 -7z m1636 -20 c14 -1 26 -3 28 -3 2 -1 -6 -14 -17
-30 -25 -35 -84 -65 -112 -56 -30 10 -8 28 30 27 17 0 33 4 36 9 4 5 -2 9 -13
9 -15 0 -18 6 -14 31 3 23 8 29 21 23 9 -4 27 -8 41 -10z m2173 2 c-1 -6 -23
-15 -48 -21 -44 -12 -45 -11 -45 12 0 22 3 24 48 21 26 -2 46 -7 45 -12z
m-143 -45 c0 -23 -29 -32 -62 -18 l-33 14 30 15 c29 16 65 9 65 -11z m261 18
c13 -6 18 -17 15 -26 -4 -11 -2 -13 9 -10 8 4 17 2 20 -3 4 -6 2 -10 -4 -10
-6 0 -8 -7 -5 -15 9 -23 -7 -17 -44 14 -22 19 -30 33 -26 44 7 20 9 20 35 6z
m1142 -11 c21 -11 21 -12 -12 -19 -48 -10 -71 0 -40 17 30 16 26 16 52 2z
m-2707 -20 c3 -25 -79 -20 -84 5 -3 16 2 18 39 15 30 -2 43 -8 45 -20z m-865
-24 c21 -12 -6 -34 -41 -34 -52 0 -70 8 -70 32 0 19 4 20 52 14 28 -4 55 -9
59 -12z m700 0 c11 -14 10 -18 -6 -30 -10 -8 -22 -14 -26 -14 -13 0 -19 33 -8
46 15 18 24 18 40 -2z m283 -25 c-8 -14 -30 -10 -45 7 -10 13 -10 17 1 24 16
10 53 -17 44 -31z m-2369 -9 c0 -10 -12 -16 -34 -18 -39 -4 -64 13 -41 29 23
14 75 7 75 -11z m1525 5 c-7 -8 -18 -15 -24 -15 -6 0 -2 7 8 15 25 19 32 19
16 0z m-1358 -47 c13 -13 22 -22 19 -21 -2 2 -11 -3 -19 -10 -13 -10 -14 -9
-7 3 5 9 0 8 -13 -4 -12 -11 -23 -17 -25 -15 -1 2 -11 14 -22 27 -16 20 -17
25 -5 32 24 16 47 11 72 -12z m1308 14 c0 -8 -58 -32 -76 -32 -7 0 55 33 74
39 1 1 2 -3 2 -7z m-1632 -10 c32 -21 -23 -71 -58 -52 -26 14 -25 24 3 43 25
18 37 20 55 9z m3696 -18 c23 -23 20 -44 -6 -43 -27 1 -79 17 -60 18 6 1 12 7
12 15 0 13 13 23 32 25 4 1 14 -6 22 -15z m-1137 -63 c22 20 24 21 15 4 -19
-33 -36 -51 -59 -63 -35 -19 -43 -14 -43 23 0 31 3 35 25 35 22 0 25 5 27 38
1 31 2 30 5 -12 l4 -48 26 23z m-314 -12 c-10 -10 -73 8 -73 21 0 5 8 16 17
26 16 15 18 15 41 -11 13 -16 20 -31 15 -36z m1787 29 c0 -5 -4 -8 -10 -8 -5
0 -10 10 -10 23 0 18 2 19 10 7 5 -8 10 -18 10 -22z m-31 4 c7 -13 6 -23 -2
-31 -9 -10 -8 -11 7 -5 13 5 17 4 12 -4 -3 -6 -20 -9 -36 -7 -17 2 -30 0 -30
-5 0 -11 -123 -24 -155 -16 -22 6 -24 9 -15 26 11 21 64 28 74 11 3 -4 16 -7
28 -6 13 1 32 3 42 4 11 0 16 4 13 7 -11 12 13 44 33 44 11 0 24 -8 29 -18z
m-3689 -47 c10 -13 9 -19 -6 -37 -19 -20 -19 -21 5 -13 37 11 21 -15 -25 -42
-45 -26 -67 -28 -82 -10 -9 10 -4 17 19 31 16 9 36 33 44 52 15 37 26 42 45
19z m-330 -59 c-26 -12 -50 -1 -50 24 0 11 -6 20 -12 21 -7 1 -2 4 12 9 20 6
29 2 47 -19 22 -25 22 -26 3 -35z m5020 48 c0 -2 -14 -4 -31 -4 -16 0 -28 4
-25 9 5 8 56 3 56 -5z m-2622 -19 c10 -10 -9 -35 -26 -35 -27 0 -56 25 -47 39
7 12 60 9 73 -4z m2552 -8 c35 -11 35 -11 7 -15 -17 -2 -37 5 -55 19 -19 16
-21 20 -7 14 11 -4 36 -12 55 -18z m-2356 -10 c-6 -16 -92 -72 -100 -65 -2 3
14 15 36 27 22 12 45 31 51 42 12 24 23 20 13 -4z m1446 8 c0 -6 -56 -35 -67
-35 -9 0 48 38 60 39 4 1 7 -1 7 -4z m-3910 -65 c30 -4 48 -8 38 -9 -9 0 -18
-6 -20 -12 -5 -14 -108 7 -108 21 0 5 -6 10 -12 13 -7 2 1 2 17 -1 17 -3 55
-8 85 -12z m230 -20 c-21 -30 -77 -61 -109 -59 -9 0 5 11 31 23 26 13 57 35
69 50 29 37 37 25 9 -14z m-182 -77 c-10 -2 -28 -2 -40 0 -13 2 -5 4 17 4 22
1 32 -1 23 -4z m3585 -23 c-4 -16 -14 -20 -44 -20 -22 0 -39 4 -39 8 0 17 26
32 56 32 27 0 31 -3 27 -20z m135 -26 c25 -17 30 -44 8 -44 -8 0 -16 -5 -18
-12 -3 -8 -12 -5 -27 9 -16 15 -21 27 -16 42 8 25 23 27 53 5z m-290 -25 c2
-9 -9 -24 -24 -34 -14 -9 -24 -13 -20 -7 3 5 -3 17 -14 27 -30 27 -24 37 17
33 25 -2 39 -8 41 -19z m13 -188 c-8 -5 -19 -8 -25 -6 -6 2 -23 6 -38 9 -23 5
-28 12 -28 35 0 42 27 43 70 3 28 -26 32 -34 21 -41z m287 22 c6 -10 16 -14
26 -10 36 14 13 -20 -27 -40 -37 -18 -45 -19 -63 -6 l-22 14 26 29 c30 34 47
38 60 13z m-128 -69 c0 -26 -1 -27 -51 -21 -59 7 -64 10 -56 32 5 11 21 15 57
15 47 0 50 -1 50 -26z"/>
<path d="M5460 7050 c0 -5 10 -10 23 -10 18 0 19 2 7 10 -19 13 -30 13 -30 0z"/>
<path d="M3100 7000 c0 -5 9 -14 20 -20 11 -6 20 -17 20 -25 0 -8 5 -15 10
-15 14 0 13 43 -2 58 -14 14 -48 16 -48 2z"/>
<path d="M3290 6840 c-18 -12 -2 -12 25 0 13 6 15 9 5 9 -8 0 -22 -4 -30 -9z"/>
<path d="M6650 6219 c0 -5 5 -7 10 -4 6 3 10 8 10 11 0 2 -4 4 -10 4 -5 0 -10
-5 -10 -11z"/>
<path d="M5615 6920 c3 -5 13 -10 21 -10 8 0 14 5 14 10 0 6 -9 10 -21 10 -11
0 -17 -4 -14 -10z"/>
<path d="M2776 6871 c-4 -7 -5 -15 -2 -18 9 -9 19 4 14 18 -4 11 -6 11 -12 0z"/>
<path d="M4772 6746 c-9 -20 -10 -32 -3 -39 16 -16 23 -3 19 34 l-3 34 -13
-29z"/>
<path d="M4869 6683 c-1 -5 0 -18 1 -31 1 -19 -2 -22 -23 -17 -17 5 -26 2 -30
-9 -8 -21 22 -36 63 -31 17 2 43 -1 56 -7 18 -8 31 -8 49 0 35 16 33 42 -5 42
-27 0 -29 2 -23 30 5 30 5 30 -41 30 -25 0 -46 -3 -47 -7z m61 -57 c0 -3 -4
-8 -10 -11 -5 -3 -10 -1 -10 4 0 6 5 11 10 11 6 0 10 -2 10 -4z"/>
<path d="M4726 6655 c-6 -18 16 -30 39 -21 8 3 15 12 15 21 0 20 -46 20 -54 0z"/>
<path d="M5175 6641 c-3 -10 -2 -26 2 -36 5 -15 3 -17 -13 -11 -48 20 -54 19
-54 -8 0 -31 24 -44 51 -28 27 17 32 15 25 -13 -5 -19 -2 -25 10 -25 10 0 14
5 10 15 -6 18 2 45 15 45 5 0 9 -9 9 -20 0 -26 24 -36 55 -22 17 8 22 17 18
31 -5 19 -17 25 -50 24 -16 -1 -17 9 -2 24 21 21 2 43 -35 43 -25 0 -36 -5
-41 -19z"/>
<path d="M4109 6616 c-8 -18 -8 -29 1 -42 10 -17 11 -17 6 -1 -3 9 -1 28 4 42
12 32 3 33 -11 1z"/>
<path d="M4174 6595 c-18 -14 -18 -14 4 -8 12 3 22 9 22 14 0 12 -3 11 -26 -6z"/>
<path d="M4030 6568 c0 -17 -5 -18 -46 -12 -41 6 -46 5 -42 -12 2 -15 14 -20
51 -22 41 -3 47 -1 47 17 0 11 5 23 10 26 15 9 12 22 -5 22 -8 0 -15 -9 -15
-19z"/>
<path d="M4070 6535 c-16 -19 4 -55 32 -55 20 0 74 47 64 57 -12 13 -85 11
-96 -2z"/>
<path d="M3890 6481 c-37 -10 -37 -37 0 -49 17 -6 37 -9 45 -6 18 7 20 35 3
52 -13 13 -12 13 -48 3z"/>
<path d="M4836 6475 c-8 -9 -12 -23 -9 -31 5 -13 0 -14 -30 -9 -22 4 -37 3
-42 -5 -9 -15 26 -53 37 -42 14 14 60 2 54 -14 -3 -8 -1 -14 4 -14 6 0 10 10
10 23 0 14 3 18 8 10 4 -7 22 -15 39 -19 25 -5 33 -2 42 14 15 27 0 36 -46 27
-24 -4 -33 -3 -28 4 3 6 12 11 20 11 22 0 28 33 9 47 -24 17 -49 16 -68 -2z"/>
<path d="M4033 6401 c-19 -12 -10 -41 14 -47 37 -10 73 4 73 26 0 11 -3 20 -7
21 -37 5 -72 5 -80 0z"/>
<path d="M4280 6339 c0 -5 5 -7 10 -4 6 3 10 8 10 11 0 2 -4 4 -10 4 -5 0 -10
-5 -10 -11z"/>
<path d="M4227 6333 c-5 -8 25 -66 33 -65 3 0 17 3 32 7 35 9 26 25 -13 25
-26 0 -29 3 -24 20 4 14 2 20 -9 20 -8 0 -17 -3 -19 -7z"/>
<path d="M3432 6313 c-10 -4 -10 -8 -1 -19 9 -11 8 -18 -1 -29 -16 -19 -5 -31
37 -40 42 -8 64 24 36 53 -7 7 -10 19 -7 27 5 11 -1 15 -22 14 -16 0 -35 -3
-42 -6z"/>
<path d="M3938 6297 c-38 -15 -35 -25 5 -22 20 1 33 8 35 19 4 18 -1 18 -40 3z"/>
<path d="M4802 6298 c-16 -16 -15 -28 3 -28 8 0 15 -4 15 -10 0 -14 -13 -13
-46 5 -38 19 -63 19 -71 -1 -11 -28 11 -49 48 -46 l34 3 -24 -21 c-30 -26 -17
-43 30 -38 30 3 34 6 32 29 -1 26 0 27 38 22 30 -4 40 -2 45 12 8 21 -11 35
-48 35 -22 0 -27 4 -25 21 2 26 -14 34 -31 17z"/>
<path d="M3690 6291 c0 -5 -18 -16 -40 -25 -46 -18 -53 -29 -12 -20 21 4 24 3
12 -5 -11 -9 -1 -11 44 -9 37 2 61 8 64 16 2 6 -3 12 -12 12 -9 0 -25 9 -36
20 -11 11 -20 16 -20 11z"/>
<path d="M5036 6234 c-23 -23 -20 -32 15 -39 26 -6 30 -11 25 -30 -7 -26 8
-35 55 -35 30 0 38 17 17 38 -9 9 -5 12 18 12 39 0 56 13 48 34 -5 14 -14 17
-35 12 -16 -3 -29 -2 -29 2 0 4 -10 7 -22 7 -13 1 -35 4 -50 8 -18 5 -31 2
-42 -9z"/>
<path d="M5250 6221 c-14 -28 -13 -31 15 -31 24 0 51 31 38 44 -13 13 -43 5
-53 -13z"/>
<path d="M3865 6206 l-40 -13 28 -12 c34 -13 57 -14 77 -1 12 8 13 11 1 19
-11 7 -11 9 0 14 29 11 -27 5 -66 -7z"/>
<path d="M3620 6170 c-8 -5 -31 -10 -50 -10 -32 -1 -33 -2 -12 -11 13 -5 21
-13 17 -19 -3 -5 -1 -19 5 -30 13 -24 58 -27 67 -4 7 18 -13 35 -33 27 -6 -2
-15 0 -19 6 -4 7 8 11 35 11 34 0 41 3 38 17 -4 21 -27 27 -48 13z"/>
<path d="M5230 6140 c0 -5 5 -10 11 -10 8 0 9 -11 5 -32 -4 -24 -3 -29 4 -18
5 8 10 21 10 29 0 8 8 20 18 27 15 12 14 13 -15 14 -18 0 -33 -4 -33 -10z"/>
<path d="M3732 6063 c-13 -3 -28 -16 -35 -30 -9 -21 -8 -27 8 -39 10 -8 21
-10 24 -5 11 16 53 33 68 27 9 -4 13 -2 9 6 -3 7 -9 21 -12 31 -6 17 -17 19
-62 10z"/>
<path d="M3775 5990 c-3 -5 1 -10 10 -10 9 0 13 5 10 10 -3 6 -8 10 -10 10 -2
0 -7 -4 -10 -10z"/>
<path d="M3587 5957 l-29 -23 25 -13 c18 -10 30 -10 43 -2 17 9 17 10 -6 11
l-25 1 30 24 c26 22 27 25 10 25 -11 0 -33 -10 -48 -23z"/>
<path d="M3678 5958 c-16 -5 -28 -13 -28 -18 0 -12 37 0 51 16 13 16 13 16
-23 2z"/>
<path d="M2630 6470 c0 -5 5 -10 10 -10 6 0 10 5 10 10 0 6 -4 10 -10 10 -5 0
-10 -4 -10 -10z"/>
<path d="M4322 6010 c-8 -13 -8 -20 -2 -20 6 0 13 7 17 15 9 24 -1 27 -15 5z"/>
<path d="M4423 5982 c-6 -4 -17 -20 -22 -35 -12 -32 -14 -54 -4 -44 6 7 44 87
40 87 -1 0 -7 -4 -14 -8z"/>
<path d="M4255 5960 c-3 -5 -1 -10 5 -10 7 0 9 -7 6 -16 -5 -14 -4 -15 9 -4
12 10 13 16 4 26 -14 17 -16 17 -24 4z"/>
<path d="M4353 5946 c-15 -12 -39 -29 -51 -35 -13 -7 -21 -15 -18 -18 3 -3 16
1 28 10 36 25 84 66 76 67 -3 0 -19 -11 -35 -24z"/>
<path d="M4202 5920 c13 -20 28 -27 28 -12 0 10 -22 32 -32 32 -5 0 -3 -9 4
-20z"/>
<path d="M4224 5849 c-5 -9 -15 -18 -23 -20 -10 -4 -9 -8 5 -19 11 -8 16 -10
12 -6 -4 5 0 14 9 21 8 6 14 18 11 26 -4 11 -6 10 -14 -2z"/>
<path d="M4290 5835 c-10 -12 -10 -15 4 -15 9 0 16 7 16 15 0 8 -2 15 -4 15
-2 0 -9 -7 -16 -15z"/>
<path d="M4252 5788 c2 -6 10 -14 16 -16 7 -2 10 2 6 12 -7 18 -28 22 -22 4z"/>
<path d="M4660 5771 c0 -33 13 -53 31 -48 8 2 11 2 6 0 -4 -3 -4 -10 -1 -15 4
-7 2 -8 -4 -4 -7 4 -12 3 -12 -3 0 -15 23 -26 28 -13 2 6 9 9 16 6 7 -3 19 3
27 12 13 15 12 16 -11 9 -21 -7 -22 -6 -10 7 8 7 35 15 59 15 49 2 67 14 58
37 -5 13 -15 15 -47 10 -24 -4 -45 -2 -53 4 -7 7 -30 11 -50 10 -33 -1 -37 -4
-37 -27z"/>
<path d="M4500 5780 c-8 -5 -12 -12 -9 -15 8 -8 39 5 39 16 0 11 -11 11 -30
-1z"/>
<path d="M4119 5729 c-18 -18 -20 -28 -14 -67 4 -26 9 -49 11 -51 2 -3 39 6
82 19 76 23 122 54 104 72 -11 11 -65 14 -80 4 -7 -4 -23 4 -37 18 -31 31 -39
32 -66 5z"/>
<path d="M4498 5572 c-25 -11 -36 -22 -33 -32 3 -8 -2 -28 -10 -43 -13 -26
-13 -28 3 -23 9 3 29 8 44 11 25 6 32 15 37 40 1 6 12 15 23 21 20 11 20 11
-6 18 -15 4 -24 11 -21 16 7 12 10 12 -37 -8z"/>
<path d="M4245 5562 c-44 -14 -47 -17 -22 -20 15 -2 27 -7 27 -11 0 -11 43
-29 58 -24 6 3 12 20 12 39 0 38 -3 39 -75 16z"/>
<path d="M3970 5469 c-12 -8 -9 -9 10 -4 22 5 23 4 7 -5 -10 -7 -24 -9 -32 -6
-20 7 -115 -26 -115 -41 0 -7 9 -13 21 -13 15 0 19 -5 15 -18 -5 -16 1 -18 61
-17 l68 0 5 58 c5 60 -4 71 -40 46z m-50 -79 c0 -5 -4 -10 -10 -10 -5 0 -10 5
-10 10 0 6 5 10 10 10 6 0 10 -4 10 -10z"/>
<path d="M4444 5405 c-10 -8 -29 -15 -41 -15 -33 0 -103 -30 -103 -44 0 -19
14 -30 50 -43 22 -9 38 -9 44 -3 15 15 36 12 36 -5 0 -18 17 -19 53 -2 34 15
43 41 23 69 -9 12 -16 30 -16 40 0 22 -19 23 -46 3z"/>
<path d="M4090 5290 c0 -22 4 -40 8 -40 15 0 69 30 82 45 11 13 8 15 -18 15
-17 0 -34 5 -37 10 -3 6 -13 10 -21 10 -10 0 -14 -12 -14 -40z"/>
<path d="M4323 5263 c-14 -3 -23 -12 -23 -23 0 -32 18 -32 33 0 9 16 15 29 14
29 -1 -1 -12 -4 -24 -6z"/>
<path d="M4252 5178 c-14 -14 -16 -58 -2 -58 5 0 7 7 3 15 -3 9 3 25 12 35 19
21 7 28 -13 8z"/>
<path d="M4309 5143 c-13 -15 -12 -15 9 -4 23 12 28 21 13 21 -5 0 -15 -7 -22
-17z"/>
<path d="M6087 5844 c-4 -4 -4 -18 -1 -30 5 -20 2 -24 -15 -24 -14 0 -21 -6
-21 -20 0 -15 7 -20 28 -20 16 0 32 8 40 20 14 24 32 26 32 5 0 -17 38 -35 58
-27 7 2 12 14 10 26 -2 15 -10 21 -29 21 -21 0 -25 3 -21 22 4 19 0 23 -21 23
-14 0 -32 2 -39 5 -8 3 -17 3 -21 -1z"/>
<path d="M6127 5746 c-6 -16 2 -28 14 -20 12 7 11 34 0 34 -5 0 -11 -6 -14
-14z"/>
<path d="M2926 7626 c-19 -9 -25 -16 -17 -21 7 -4 18 -2 24 4 6 6 25 11 42 12
26 0 27 2 10 9 -25 11 -24 11 -59 -4z"/>
<path d="M2825 7580 c-16 -7 -17 -9 -3 -9 9 -1 20 4 23 9 7 11 7 11 -20 0z"/>
<path d="M2850 7566 c0 -2 8 -10 18 -17 15 -13 16 -12 3 4 -13 16 -21 21 -21
13z"/>
<path d="M2798 7553 c7 -3 16 -2 19 1 4 3 -2 6 -13 5 -11 0 -14 -3 -6 -6z"/>
<path d="M761 6641 c2 -44 8 -83 12 -88 15 -14 106 -6 143 14 19 10 43 31 52
46 16 27 16 29 -5 47 -12 9 -53 23 -90 30 -37 7 -79 17 -92 22 l-23 8 3 -79z
m29 -18 c0 -7 -4 -13 -10 -13 -5 0 -10 12 -10 28 0 21 2 24 10 12 5 -8 10 -21
10 -27z"/>
<path d="M1130 5995 c0 -9 6 -12 15 -9 8 4 15 10 15 15 0 5 -7 9 -15 9 -8 0
-15 -7 -15 -15z"/>
<path d="M422 5620 c0 -14 2 -19 5 -12 2 6 2 18 0 25 -3 6 -5 1 -5 -13z"/>
<path d="M431 5534 c0 -11 3 -14 6 -6 3 7 2 16 -1 19 -3 4 -6 -2 -5 -13z"/>
<path d="M442 5365 c0 -16 2 -22 5 -12 2 9 2 23 0 30 -3 6 -5 -1 -5 -18z"/>
<path d="M451 5254 c0 -11 3 -14 6 -6 3 7 2 16 -1 19 -3 4 -6 -2 -5 -13z"/>
<path d="M462 5155 c0 -16 2 -22 5 -12 2 9 2 23 0 30 -3 6 -5 -1 -5 -18z"/>
<path d="M470 5088 c0 -49 38 -213 73 -308 107 -292 265 -529 513 -770 272
-264 552 -453 982 -663 l226 -110 44 23 43 23 -75 29 c-106 41 -459 221 -596
303 -127 76 -336 220 -347 238 -4 7 1 6 10 -2 10 -8 19 -12 21 -10 1 2 -13 17
-33 34 -23 19 -29 21 -17 7 35 -40 2 -23 -54 29 -30 28 -47 46 -37 39 36 -26
22 -4 -22 35 -37 32 -40 33 -17 7 17 -18 25 -32 20 -32 -6 0 -28 19 -49 42
-22 23 -31 36 -20 28 18 -14 19 -14 6 2 -7 10 -18 15 -23 12 -10 -7 -168 143
-168 159 0 5 8 3 18 -4 15 -13 16 -12 4 3 -8 10 -19 16 -25 15 -7 -1 -11 4 -9
11 1 8 -2 11 -7 8 -5 -4 -26 13 -45 37 -41 50 -47 70 -13 41 l22 -19 -19 22
c-10 13 -22 21 -26 18 -9 -6 -38 26 -78 87 -36 52 -40 67 -14 47 15 -13 16
-12 3 3 -7 10 -17 16 -21 13 -10 -6 -62 79 -118 190 -50 101 -96 227 -127 347
-13 51 -24 81 -25 66z"/>
<path d="M810 4386 c0 -2 8 -10 18 -17 15 -13 16 -12 3 4 -13 16 -21 21 -21
13z"/>
<path d="M905 4270 c10 -11 20 -20 23 -20 3 0 -3 9 -13 20 -10 11 -20 20 -23
20 -3 0 3 -9 13 -20z"/>
<path d="M1040 4125 c30 -30 57 -55 59 -55 3 0 -19 25 -49 55 -30 30 -57 55
-59 55 -3 0 19 -25 49 -55z"/>
<path d="M2711 3818 c-7 -18 -15 -41 -17 -51 -10 -48 -33 -87 -49 -81 -11 5
-13 10 -5 19 8 9 6 14 -4 18 -17 7 -41 -26 -61 -81 -7 -20 -28 -71 -48 -112
-32 -69 -48 -113 -60 -166 -4 -20 0 -19 61 13 60 31 73 34 133 31 37 -2 66 0
64 3 -2 3 -5 49 -6 102 l-1 96 51 59 c74 85 71 135 -12 170 -15 7 -29 12 -30
12 -2 0 -9 -15 -16 -32z"/>
<path d="M1390 3826 c0 -3 20 -19 45 -36 25 -17 45 -29 45 -26 0 3 -20 19 -45
36 -25 17 -45 29 -45 26z"/>
<path d="M1590 3686 c0 -2 7 -7 16 -10 8 -3 12 -2 9 4 -6 10 -25 14 -25 6z"/>
<path d="M1660 3646 c0 -3 9 -10 20 -16 11 -6 20 -8 20 -6 0 3 -9 10 -20 16
-11 6 -20 8 -20 6z"/>
<path d="M6850 3414 c-9 -3 -22 -15 -29 -27 -13 -21 -13 -21 5 -6 10 9 28 21
39 27 20 11 14 13 -15 6z"/>
<path d="M2555 3379 c-67 -33 -65 -39 12 -39 85 0 120 -11 133 -42 7 -19 9
-15 9 24 1 25 -2 53 -5 62 -9 23 -98 20 -149 -5z"/>
<path d="M6505 3269 c-33 -12 -62 -23 -65 -26 -12 -13 119 11 150 28 l35 18
-30 0 c-16 0 -57 -9 -90 -20z"/>
<path d="M6290 3195 c-152 -53 -338 -107 -510 -145 -52 -12 -113 -25 -135 -30
-107 -24 -343 -61 -450 -70 -66 -6 -133 -12 -149 -14 -173 -25 -916 -26 -1146
-2 -355 37 -878 125 -865 147 3 4 -3 5 -13 2 -18 -4 -210 38 -265 59 -16 6
-33 21 -37 32 -6 13 -7 3 -3 -29 3 -27 11 -56 17 -63 22 -24 462 -121 751
-166 322 -50 463 -60 865 -61 289 0 413 4 540 17 91 10 192 20 225 23 112 11
409 66 595 111 222 54 729 219 655 213 -5 -1 -39 -11 -75 -24z"/>
</g>
</svg>
